<?xml version="1.0" encoding="UTF-8" standalone="no"?>
<!-- Created with Inkscape (http://www.inkscape.org/) -->

<svg
   xmlns:dc="http://purl.org/dc/elements/1.1/"
   xmlns:cc="http://creativecommons.org/ns#"
   xmlns:rdf="http://www.w3.org/1999/02/22-rdf-syntax-ns#"
   xmlns:svg="http://www.w3.org/2000/svg"
   xmlns="http://www.w3.org/2000/svg"
   xmlns:sodipodi="http://sodipodi.sourceforge.net/DTD/sodipodi-0.dtd"
   xmlns:inkscape="http://www.inkscape.org/namespaces/inkscape"
   width="744.09448819"
   height="1052.3622047"
   id="svg2"
   version="1.1"
   inkscape:version="0.48.3.1 r9886"
   sodipodi:docname="New document 1">
  <defs
     id="defs4">
    <marker
       inkscape:stockid="Arrow1Lend"
       orient="auto"
       refY="0.0"
       refX="0.0"
       id="Arrow1Lend"
       style="overflow:visible;">
      <path
         id="path4547"
         d="M 0.0,0.0 L 5.0,-5.0 L -12.5,0.0 L 5.0,5.0 L 0.0,0.0 z "
         style="fill-rule:evenodd;stroke:#000000;stroke-width:1.0pt;"
         transform="scale(0.8) rotate(180) translate(12.5,0)" />
    </marker>
    <marker
       inkscape:stockid="Arrow1Lend"
       orient="auto"
       refY="0"
       refX="0"
       id="Arrow1Lend-1"
       style="overflow:visible">
      <path
         inkscape:connector-curvature="0"
         id="path4547-1"
         d="M 0,0 5,-5 -12.5,0 5,5 0,0 z"
         style="fill-rule:evenodd;stroke:#000000;stroke-width:1pt"
         transform="matrix(-0.8,0,0,-0.8,-10,0)" />
    </marker>
    <marker
       inkscape:stockid="Arrow1Lend"
       orient="auto"
       refY="0"
       refX="0"
       id="Arrow1Lend-1-9"
       style="overflow:visible">
      <path
         inkscape:connector-curvature="0"
         id="path4547-1-3"
         d="M 0,0 5,-5 -12.5,0 5,5 0,0 z"
         style="fill-rule:evenodd;stroke:#000000;stroke-width:1pt"
         transform="matrix(-0.8,0,0,-0.8,-10,0)" />
    </marker>
    <marker
       inkscape:stockid="Arrow1Lend"
       orient="auto"
       refY="0"
       refX="0"
       id="Arrow1Lend-1-92"
       style="overflow:visible">
      <path
         inkscape:connector-curvature="0"
         id="path4547-1-39"
         d="M 0,0 5,-5 -12.5,0 5,5 0,0 z"
         style="fill-rule:evenodd;stroke:#000000;stroke-width:1pt"
         transform="matrix(-0.8,0,0,-0.8,-10,0)" />
    </marker>
    <marker
       inkscape:stockid="Arrow1Lend"
       orient="auto"
       refY="0"
       refX="0"
       id="Arrow1Lend-1-5"
       style="overflow:visible">
      <path
         inkscape:connector-curvature="0"
         id="path4547-1-7"
         d="M 0,0 5,-5 -12.5,0 5,5 0,0 z"
         style="fill-rule:evenodd;stroke:#000000;stroke-width:1pt"
         transform="matrix(-0.8,0,0,-0.8,-10,0)" />
    </marker>
    <marker
       inkscape:stockid="Arrow1Lend"
       orient="auto"
       refY="0"
       refX="0"
       id="Arrow1Lend-1-2"
       style="overflow:visible">
      <path
         inkscape:connector-curvature="0"
         id="path4547-1-8"
         d="M 0,0 5,-5 -12.5,0 5,5 0,0 z"
         style="fill-rule:evenodd;stroke:#000000;stroke-width:1pt"
         transform="matrix(-0.8,0,0,-0.8,-10,0)" />
    </marker>
    <marker
       inkscape:stockid="Arrow1Lend"
       orient="auto"
       refY="0"
       refX="0"
       id="Arrow1Lend-1-3"
       style="overflow:visible">
      <path
         inkscape:connector-curvature="0"
         id="path4547-1-9"
         d="M 0,0 5,-5 -12.5,0 5,5 0,0 z"
         style="fill-rule:evenodd;stroke:#000000;stroke-width:1pt"
         transform="matrix(-0.8,0,0,-0.8,-10,0)" />
    </marker>
    <marker
       inkscape:stockid="Arrow1Lend"
       orient="auto"
       refY="0"
       refX="0"
       id="Arrow1Lend-1-4"
       style="overflow:visible">
      <path
         inkscape:connector-curvature="0"
         id="path4547-1-4"
         d="M 0,0 5,-5 -12.5,0 5,5 0,0 z"
         style="fill-rule:evenodd;stroke:#000000;stroke-width:1pt"
         transform="matrix(-0.8,0,0,-0.8,-10,0)" />
    </marker>
    <marker
       inkscape:stockid="Arrow1Lend"
       orient="auto"
       refY="0"
       refX="0"
       id="Arrow1Lend-1-35"
       style="overflow:visible">
      <path
         inkscape:connector-curvature="0"
         id="path4547-1-1"
         d="M 0,0 5,-5 -12.5,0 5,5 0,0 z"
         style="fill-rule:evenodd;stroke:#000000;stroke-width:1pt"
         transform="matrix(-0.8,0,0,-0.8,-10,0)" />
    </marker>
    <marker
       inkscape:stockid="Arrow1Lend"
       orient="auto"
       refY="0"
       refX="0"
       id="Arrow1Lend-1-98"
       style="overflow:visible">
      <path
         inkscape:connector-curvature="0"
         id="path4547-1-72"
         d="M 0,0 5,-5 -12.5,0 5,5 0,0 z"
         style="fill-rule:evenodd;stroke:#000000;stroke-width:1pt"
         transform="matrix(-0.8,0,0,-0.8,-10,0)" />
    </marker>
    <marker
       inkscape:stockid="Arrow1Lend"
       orient="auto"
       refY="0"
       refX="0"
       id="Arrow1Lend-1-8"
       style="overflow:visible">
      <path
         inkscape:connector-curvature="0"
         id="path4547-1-46"
         d="M 0,0 5,-5 -12.5,0 5,5 0,0 z"
         style="fill-rule:evenodd;stroke:#000000;stroke-width:1pt"
         transform="matrix(-0.8,0,0,-0.8,-10,0)" />
    </marker>
    <marker
       inkscape:stockid="Arrow1Lend"
       orient="auto"
       refY="0"
       refX="0"
       id="Arrow1Lend-1-983"
       style="overflow:visible">
      <path
         inkscape:connector-curvature="0"
         id="path4547-1-6"
         d="M 0,0 5,-5 -12.5,0 5,5 0,0 z"
         style="fill-rule:evenodd;stroke:#000000;stroke-width:1pt"
         transform="matrix(-0.8,0,0,-0.8,-10,0)" />
    </marker>
    <marker
       inkscape:stockid="Arrow1Lend"
       orient="auto"
       refY="0"
       refX="0"
       id="Arrow1Lend-1-1"
       style="overflow:visible">
      <path
         inkscape:connector-curvature="0"
         id="path4547-1-2"
         d="M 0,0 5,-5 -12.5,0 5,5 0,0 z"
         style="fill-rule:evenodd;stroke:#000000;stroke-width:1pt"
         transform="matrix(-0.8,0,0,-0.8,-10,0)" />
    </marker>
    <marker
       inkscape:stockid="Arrow1Lend"
       orient="auto"
       refY="0"
       refX="0"
       id="Arrow1Lend-1-1-3"
       style="overflow:visible">
      <path
         inkscape:connector-curvature="0"
         id="path4547-1-2-6"
         d="M 0,0 5,-5 -12.5,0 5,5 0,0 z"
         style="fill-rule:evenodd;stroke:#000000;stroke-width:1pt"
         transform="matrix(-0.8,0,0,-0.8,-10,0)" />
    </marker>
    <marker
       inkscape:stockid="Arrow1Lend"
       orient="auto"
       refY="0"
       refX="0"
       id="Arrow1Lend-1-1-7"
       style="overflow:visible">
      <path
         inkscape:connector-curvature="0"
         id="path4547-1-2-4"
         d="M 0,0 5,-5 -12.5,0 5,5 0,0 z"
         style="fill-rule:evenodd;stroke:#000000;stroke-width:1pt"
         transform="matrix(-0.8,0,0,-0.8,-10,0)" />
    </marker>
    <marker
       inkscape:stockid="Arrow1Lend"
       orient="auto"
       refY="0"
       refX="0"
       id="Arrow1Lend-1-1-30"
       style="overflow:visible">
      <path
         inkscape:connector-curvature="0"
         id="path4547-1-2-1"
         d="M 0,0 5,-5 -12.5,0 5,5 0,0 z"
         style="fill-rule:evenodd;stroke:#000000;stroke-width:1pt"
         transform="matrix(-0.8,0,0,-0.8,-10,0)" />
    </marker>
    <marker
       inkscape:stockid="Arrow1Lend"
       orient="auto"
       refY="0"
       refX="0"
       id="Arrow1Lend-1-1-2"
       style="overflow:visible">
      <path
         inkscape:connector-curvature="0"
         id="path4547-1-2-8"
         d="M 0,0 5,-5 -12.5,0 5,5 0,0 z"
         style="fill-rule:evenodd;stroke:#000000;stroke-width:1pt"
         transform="matrix(-0.8,0,0,-0.8,-10,0)" />
    </marker>
    <marker
       inkscape:stockid="Arrow1Lend"
       orient="auto"
       refY="0"
       refX="0"
       id="Arrow1Lend-1-1-75"
       style="overflow:visible">
      <path
         inkscape:connector-curvature="0"
         id="path4547-1-2-9"
         d="M 0,0 5,-5 -12.5,0 5,5 0,0 z"
         style="fill-rule:evenodd;stroke:#000000;stroke-width:1pt"
         transform="matrix(-0.8,0,0,-0.8,-10,0)" />
    </marker>
    <marker
       inkscape:stockid="Arrow1Lend"
       orient="auto"
       refY="0"
       refX="0"
       id="Arrow1Lend-1-1-0"
       style="overflow:visible">
      <path
         inkscape:connector-curvature="0"
         id="path4547-1-2-2"
         d="M 0,0 5,-5 -12.5,0 5,5 0,0 z"
         style="fill-rule:evenodd;stroke:#000000;stroke-width:1pt"
         transform="matrix(-0.8,0,0,-0.8,-10,0)" />
    </marker>
  </defs>
  <sodipodi:namedview
     id="base"
     pagecolor="#ffffff"
     bordercolor="#666666"
     borderopacity="1.0"
     inkscape:pageopacity="0.0"
     inkscape:pageshadow="2"
     inkscape:zoom="1"
     inkscape:cx="390.29092"
     inkscape:cy="592.86218"
     inkscape:document-units="px"
     inkscape:current-layer="layer1"
     showgrid="false"
     showguides="false"
     inkscape:snap-global="false"
     inkscape:window-width="1678"
     inkscape:window-height="1029"
     inkscape:window-x="0"
     inkscape:window-y="19"
     inkscape:window-maximized="0">
    <inkscape:grid
       type="xygrid"
       id="grid3336" />
  </sodipodi:namedview>
  <metadata
     id="metadata7">
    <rdf:RDF>
      <cc:Work
         rdf:about="">
        <dc:format>image/svg+xml</dc:format>
        <dc:type
           rdf:resource="http://purl.org/dc/dcmitype/StillImage" />
        <dc:title></dc:title>
      </cc:Work>
    </rdf:RDF>
  </metadata>
  <g
     inkscape:label="Layer 1"
     inkscape:groupmode="layer"
     id="layer1">
    <text
       xml:space="preserve"
       x="72.249001"
       y="715.61121"
       id="text2989-59"
       style="font-size:40px;font-style:normal;font-weight:normal;line-height:125%;letter-spacing:0px;word-spacing:0px;fill:#0f0f0f;fill-opacity:1;stroke:none;font-family:Sans"
       sodipodi:linespacing="125%"><tspan
         sodipodi:role="line"
         id="tspan2991-6"
         x="0"
         y="0"><tspan
           id="tspan2993-74"
           style="font-size:65.00091553%;baseline-shift:sub;fill:#0f0f0f;fill-opacity:1" /></tspan></text>
    <path
       sodipodi:type="arc"
       style="fill:none;stroke:#311b1b;stroke-width:1.20000005;stroke-miterlimit:4;stroke-opacity:1;stroke-dasharray:none"
       id="path4500"
       sodipodi:cx="107.5"
       sodipodi:cy="285.36218"
       sodipodi:rx="81.5"
       sodipodi:ry="36"
       d="m 189,285.36218 a 81.5,36 0 1 1 -163,0 81.5,36 0 1 1 163,0 z"
       transform="translate(-3,9)" />
    <text
       xml:space="preserve"
       style="font-size:40px;font-style:normal;font-weight:normal;line-height:125%;letter-spacing:0px;word-spacing:0px;fill:#000000;fill-opacity:1;stroke:none;font-family:Sans"
       x="32"
       y="297.36218"
       id="text4502"
       sodipodi:linespacing="125%"><tspan
         sodipodi:role="line"
         id="tspan4504"
         x="32"
         y="297.36218"
         style="font-size:24px">preparation</tspan></text>
    <path
       transform="matrix(1.475483,0,0,1.3542186,234.38557,-89.080591)"
       sodipodi:type="arc"
       style="fill:none;stroke:#311b1b;stroke-width:1.20000005;stroke-miterlimit:4;stroke-opacity:1;stroke-dasharray:none"
       id="path4500-3"
       sodipodi:cx="107.5"
       sodipodi:cy="285.36218"
       sodipodi:rx="81.5"
       sodipodi:ry="36"
       d="m 189,285.36218 a 81.5,36 0 1 1 -163,0 81.5,36 0 1 1 163,0 z" />
    <text
       xml:space="preserve"
       style="font-size:40px;font-style:normal;font-weight:normal;text-align:center;line-height:125%;letter-spacing:0px;word-spacing:0px;text-anchor:middle;fill:#000000;fill-opacity:1;stroke:none;font-family:Sans"
       x="394.42773"
       y="276.36218"
       id="text4524"
       sodipodi:linespacing="125%"><tspan
         sodipodi:role="line"
         id="tspan4526"
         x="394.42773"
         y="276.36218"
         style="font-size:24px">nucleus</tspan><tspan
         sodipodi:role="line"
         x="397.61133"
         y="301.36218"
         id="tspan4528"
         style="font-size:24px">continuous / </tspan><tspan
         sodipodi:role="line"
         x="397.61133"
         y="326.36218"
         style="font-size:24px"
         id="tspan4536">discrete </tspan></text>
    <path
       style="fill:none;stroke:#000000;stroke-width:1px;stroke-linecap:butt;stroke-linejoin:miter;stroke-opacity:1;marker-end:url(#Arrow1Lend)"
       d="m 186,292.36218 85,1"
       id="path4984"
       inkscape:connector-curvature="0" />
    <path
       sodipodi:type="arc"
       style="fill:none;stroke:#311b1b;stroke-width:1.20000005;stroke-miterlimit:4;stroke-opacity:1;stroke-dasharray:none"
       id="path4500-2"
       sodipodi:cx="107.5"
       sodipodi:cy="285.36218"
       sodipodi:rx="81.5"
       sodipodi:ry="36"
       d="m 189,285.36218 a 81.5,36 0 1 1 -163,0 81.5,36 0 1 1 163,0 z"
       transform="matrix(0.90831833,0,0,1.0007762,574.85578,8.7784979)" />
    <text
       xml:space="preserve"
       style="font-size:40px;font-style:normal;font-weight:normal;line-height:125%;letter-spacing:0px;word-spacing:0px;fill:#000000;fill-opacity:1;stroke:none;font-family:Sans"
       x="630.5"
       y="300.36218"
       id="text4502-4"
       sodipodi:linespacing="125%"><tspan
         sodipodi:role="line"
         id="tspan4504-3"
         x="630.5"
         y="300.36218"
         style="font-size:24px">retract</tspan></text>
    <path
       style="fill:none;stroke:#000000;stroke-width:1px;stroke-linecap:butt;stroke-linejoin:miter;stroke-opacity:1;marker-end:url(#Arrow1Lend)"
       d="m 512.49202,295.50216 85.00057,-0.95038"
       id="path4984-5"
       inkscape:connector-curvature="0" />
    <path
       style="fill:none;stroke:#000000;stroke-width:1px;stroke-linecap:butt;stroke-linejoin:miter;stroke-opacity:1;marker-end:url(#Arrow1Lend-1)"
       d="m 107,256.36218 c 194.09289,-124.58959 387.56333,-126.13233 579,0"
       id="path5402"
       inkscape:connector-curvature="0"
       sodipodi:nodetypes="cc" />
    <path
       style="fill:none;stroke:#000000;stroke-width:1px;stroke-linecap:butt;stroke-linejoin:miter;stroke-opacity:1;marker-end:url(#Arrow1Lend-1)"
       d="m 687,334.36218 c -193.55928,53.76072 -390.10921,49.2038 -589,-1"
       id="path5588"
       inkscape:connector-curvature="0"
       sodipodi:nodetypes="cc" />
    <path
       style="fill:none;stroke:#000000;stroke-width:1px;stroke-linecap:butt;stroke-linejoin:miter;stroke-opacity:1;marker-end:url(#Arrow1Lend-1)"
       d="m 324,257.36218 c 40.3683,-48.37602 82.68113,-68.23228 131,0"
       id="path5774"
       inkscape:connector-curvature="0"
       sodipodi:nodetypes="cc" />
    <path
       sodipodi:type="arc"
       style="fill:none;stroke:#311b1b;stroke-width:1.20000005;stroke-miterlimit:4;stroke-opacity:1;stroke-dasharray:none"
       id="path5960"
       sodipodi:cx="59.5"
       sodipodi:cy="423.86218"
       sodipodi:rx="23.5"
       sodipodi:ry="24.5"
       d="m 83,423.86218 a 23.5,24.5 0 1 1 -47,0 23.5,24.5 0 1 1 47,0 z"
       transform="matrix(1.0050652,0,0,1.0050652,-28.179308,-1.9767618)" />
    <path
       transform="matrix(1.0050652,0,0,1.0050652,54.626881,-4.4894255)"
       sodipodi:type="arc"
       style="fill:none;stroke:#311b1b;stroke-width:1.20000005;stroke-miterlimit:4;stroke-opacity:1;stroke-dasharray:none"
       id="path5960-8"
       sodipodi:cx="59.5"
       sodipodi:cy="423.86218"
       sodipodi:rx="23.5"
       sodipodi:ry="24.5"
       d="m 83,423.86218 a 23.5,24.5 0 1 1 -47,0 23.5,24.5 0 1 1 47,0 z" />
    <path
       transform="matrix(1.0050652,0,0,1.0050652,137.43308,-4.4894255)"
       sodipodi:type="arc"
       style="fill:none;stroke:#311b1b;stroke-width:1.20000005;stroke-miterlimit:4;stroke-opacity:1;stroke-dasharray:none"
       id="path5960-6"
       sodipodi:cx="59.5"
       sodipodi:cy="423.86218"
       sodipodi:rx="23.5"
       sodipodi:ry="24.5"
       d="m 83,423.86218 a 23.5,24.5 0 1 1 -47,0 23.5,24.5 0 1 1 47,0 z" />
    <path
       transform="matrix(1.0050652,0,0,1.0050652,220.23926,-3.4843604)"
       sodipodi:type="arc"
       style="fill:none;stroke:#311b1b;stroke-width:1.20000005;stroke-miterlimit:4;stroke-opacity:1;stroke-dasharray:none"
       id="path5960-5"
       sodipodi:cx="59.5"
       sodipodi:cy="423.86218"
       sodipodi:rx="23.5"
       sodipodi:ry="24.5"
       d="m 83,423.86218 a 23.5,24.5 0 1 1 -47,0 23.5,24.5 0 1 1 47,0 z" />
    <path
       transform="matrix(1.0050652,0,0,1.0050652,303.04547,-2.4792943)"
       sodipodi:type="arc"
       style="fill:none;stroke:#311b1b;stroke-width:1.20000005;stroke-miterlimit:4;stroke-opacity:1;stroke-dasharray:none"
       id="path5960-57"
       sodipodi:cx="59.5"
       sodipodi:cy="423.86218"
       sodipodi:rx="23.5"
       sodipodi:ry="24.5"
       d="m 83,423.86218 a 23.5,24.5 0 1 1 -47,0 23.5,24.5 0 1 1 47,0 z" />
    <path
       transform="matrix(1.0050652,0,0,1.0050652,385.85166,-5.4944905)"
       sodipodi:type="arc"
       style="fill:none;stroke:#311b1b;stroke-width:1.20000005;stroke-miterlimit:4;stroke-opacity:1;stroke-dasharray:none"
       id="path5960-3"
       sodipodi:cx="59.5"
       sodipodi:cy="423.86218"
       sodipodi:rx="23.5"
       sodipodi:ry="24.5"
       d="m 83,423.86218 a 23.5,24.5 0 1 1 -47,0 23.5,24.5 0 1 1 47,0 z" />
    <path
       transform="matrix(1.0050652,0,0,1.0050652,468.65788,-8.5096857)"
       sodipodi:type="arc"
       style="fill:none;stroke:#311b1b;stroke-width:1.20000005;stroke-miterlimit:4;stroke-opacity:1;stroke-dasharray:none"
       id="path5960-80"
       sodipodi:cx="59.5"
       sodipodi:cy="423.86218"
       sodipodi:rx="23.5"
       sodipodi:ry="24.5"
       d="m 83,423.86218 a 23.5,24.5 0 1 1 -47,0 23.5,24.5 0 1 1 47,0 z" />
    <path
       transform="matrix(1.0050652,0,0,1.0050652,551.46405,-10.519817)"
       sodipodi:type="arc"
       style="fill:none;stroke:#311b1b;stroke-width:1.20000005;stroke-miterlimit:4;stroke-opacity:1;stroke-dasharray:none"
       id="path5960-9"
       sodipodi:cx="59.5"
       sodipodi:cy="423.86218"
       sodipodi:rx="23.5"
       sodipodi:ry="24.5"
       d="m 83,423.86218 a 23.5,24.5 0 1 1 -47,0 23.5,24.5 0 1 1 47,0 z" />
    <path
       transform="matrix(1.0050652,0,0,1.0050652,634.27022,-7.5046206)"
       sodipodi:type="arc"
       style="fill:none;stroke:#311b1b;stroke-width:1.20000005;stroke-miterlimit:4;stroke-opacity:1;stroke-dasharray:none"
       id="path5960-1"
       sodipodi:cx="59.5"
       sodipodi:cy="423.86218"
       sodipodi:rx="23.5"
       sodipodi:ry="24.5"
       d="m 83,423.86218 a 23.5,24.5 0 1 1 -47,0 23.5,24.5 0 1 1 47,0 z" />
    <path
       transform="matrix(1.0050652,0,0,1.0050652,717.07639,-6.4995556)"
       sodipodi:type="arc"
       style="fill:none;stroke:#311b1b;stroke-width:1.20000005;stroke-miterlimit:4;stroke-opacity:1;stroke-dasharray:none"
       id="path5960-60"
       sodipodi:cx="59.5"
       sodipodi:cy="423.86218"
       sodipodi:rx="23.5"
       sodipodi:ry="24.5"
       d="m 83,423.86218 a 23.5,24.5 0 1 1 -47,0 23.5,24.5 0 1 1 47,0 z" />
    <text
       xml:space="preserve"
       style="font-size:38.02456665px;font-style:normal;font-weight:normal;line-height:125%;letter-spacing:0px;word-spacing:0px;fill:#000000;fill-opacity:1;stroke:none;font-family:Sans"
       x="175.77232"
       y="428.52997"
       id="text6051"
       sodipodi:linespacing="125%"><tspan
         sodipodi:role="line"
         id="tspan6053"
         x="175.77232"
         y="428.52997"
         style="font-size:22.81473923px">end</tspan></text>
    <path
       style="fill:none;stroke:#000000;stroke-width:1;stroke-linecap:butt;stroke-linejoin:miter;stroke-opacity:1;stroke-miterlimit:4;stroke-dasharray:1,2;stroke-dashoffset:10;marker-end:url(#Arrow1Lend-1)"
       d="m 62,325.36218 -24,75"
       id="path6055"
       inkscape:connector-curvature="0" />
    <path
       style="fill:none;stroke:#000000;stroke-width:1px;stroke-linecap:butt;stroke-linejoin:miter;stroke-opacity:1;marker-end:url(#Arrow1Lend-1)"
       d="m 55,422.36218 37,-1"
       id="path6241"
       inkscape:connector-curvature="0" />
    <path
       style="fill:none;stroke:#000000;stroke-width:1px;stroke-linecap:butt;stroke-linejoin:miter;stroke-opacity:1;marker-end:url(#Arrow1Lend-1)"
       d="m 137.5,422.98394 37,-1"
       id="path6241-7"
       inkscape:connector-curvature="0" />
    <path
       style="fill:none;stroke:#000000;stroke-width:1px;stroke-linecap:butt;stroke-linejoin:miter;stroke-opacity:1;marker-end:url(#Arrow1Lend-1)"
       d="m 302.5,421.98394 37,-1"
       id="path6241-2"
       inkscape:connector-curvature="0" />
    <path
       style="fill:none;stroke:#000000;stroke-width:1px;stroke-linecap:butt;stroke-linejoin:miter;stroke-opacity:1;marker-end:url(#Arrow1Lend-1)"
       d="m 387.5,422.98394 37,-1"
       id="path6241-0"
       inkscape:connector-curvature="0" />
    <path
       style="fill:none;stroke:#000000;stroke-width:1px;stroke-linecap:butt;stroke-linejoin:miter;stroke-opacity:1;marker-end:url(#Arrow1Lend-1)"
       d="m 469.5,421.98394 36,-1"
       id="path6241-1"
       inkscape:connector-curvature="0"
       sodipodi:nodetypes="cc" />
    <path
       style="fill:none;stroke:#000000;stroke-width:1;stroke-linecap:butt;stroke-linejoin:miter;stroke-miterlimit:4;stroke-opacity:1;stroke-dasharray:1, 2;stroke-dashoffset:10;marker-end:url(#Arrow1Lend-1)"
       d="m 306,329.86218 -23,66"
       id="path6055-7"
       inkscape:connector-curvature="0"
       sodipodi:nodetypes="cc" />
    <text
       xml:space="preserve"
       style="font-size:38.02456665px;font-style:normal;font-weight:normal;line-height:125%;letter-spacing:0px;word-spacing:0px;fill:#000000;fill-opacity:1;stroke:none;font-family:Sans"
       x="506.90637"
       y="425.86758"
       id="text6051-8"
       sodipodi:linespacing="125%"><tspan
         sodipodi:role="line"
         id="tspan6053-8"
         x="506.90637"
         y="425.86758"
         style="font-size:22.81473923px">end</tspan></text>
    <path
       style="fill:none;stroke:#000000;stroke-width:1px;stroke-linecap:butt;stroke-linejoin:miter;stroke-opacity:1;marker-end:url(#Arrow1Lend-1)"
       d="m 290.5,399.98394 c 57.76298,-43.83897 101.00825,-11.45997 149,-4"
       id="path6241-2-8"
       inkscape:connector-curvature="0"
       sodipodi:nodetypes="cc" />
    <path
       style="fill:none;stroke:#000000;stroke-width:1.12520015px;stroke-linecap:butt;stroke-linejoin:miter;stroke-opacity:1;marker-end:url(#Arrow1Lend-1)"
       d="m 94.556549,405.92134 c -13.953524,-44.21329 44.202661,-41.27259 34.902831,-2.5392"
       id="path6241-2-7"
       inkscape:connector-curvature="0"
       sodipodi:nodetypes="cc" />
    <path
       style="fill:none;stroke:#000000;stroke-width:1px;stroke-linecap:butt;stroke-linejoin:miter;stroke-opacity:1;marker-end:url(#Arrow1Lend-1)"
       d="m 636,414.97344 36,-1"
       id="path6241-1-9"
       inkscape:connector-curvature="0"
       sodipodi:nodetypes="cc" />
    <path
       style="fill:none;stroke:#000000;stroke-width:1px;stroke-linecap:butt;stroke-linejoin:miter;stroke-opacity:1;marker-end:url(#Arrow1Lend-1)"
       d="m 718,414.97344 36,-1"
       id="path6241-1-8"
       inkscape:connector-curvature="0"
       sodipodi:nodetypes="cc" />
    <path
       style="fill:none;stroke:#000000;stroke-width:1;stroke-linecap:butt;stroke-linejoin:miter;stroke-miterlimit:4;stroke-opacity:1;stroke-dasharray:1, 2;stroke-dashoffset:10;marker-end:url(#Arrow1Lend-1)"
       d="m 636.5,324.36218 -23,66"
       id="path6055-7-1"
       inkscape:connector-curvature="0"
       sodipodi:nodetypes="cc" />
    <text
       xml:space="preserve"
       style="font-size:38.02456665px;font-style:normal;font-weight:normal;line-height:125%;letter-spacing:0px;word-spacing:0px;fill:#000000;fill-opacity:1;stroke:none;font-family:Sans"
       x="755.90637"
       y="423.86758"
       id="text6051-8-4"
       sodipodi:linespacing="125%"><tspan
         sodipodi:role="line"
         id="tspan6053-8-5"
         x="755.90637"
         y="423.86758"
         style="font-size:22.81473923px">end</tspan></text>
    <path
       sodipodi:type="arc"
       style="fill:none;stroke:#311b1b;stroke-width:1.20000005;stroke-miterlimit:4;stroke-opacity:1;stroke-dasharray:none"
       id="path4500-2-2"
       sodipodi:cx="107.5"
       sodipodi:cy="285.36218"
       sodipodi:rx="81.5"
       sodipodi:ry="36"
       d="m 189,285.36218 a 81.5,36 0 1 1 -163,0 81.5,36 0 1 1 163,0 z"
       transform="matrix(0.50518431,0,0,1.0047923,770.19269,7.6324694)" />
    <text
       xml:space="preserve"
       style="font-size:38.02456665px;font-style:normal;font-weight:normal;line-height:125%;letter-spacing:0px;word-spacing:0px;fill:#000000;fill-opacity:1;stroke:none;font-family:Sans"
       x="803.90637"
       y="299.86758"
       id="text6051-8-4-9"
       sodipodi:linespacing="125%"><tspan
         sodipodi:role="line"
         id="tspan6053-8-5-9"
         x="803.90637"
         y="299.86758"
         style="font-size:22.81473923px">end</tspan></text>
    <path
       style="fill:none;stroke:#000000;stroke-width:1px;stroke-linecap:butt;stroke-linejoin:miter;stroke-opacity:1;marker-end:url(#Arrow1Lend-1)"
       d="m 747,291.97344 36,-1"
       id="path6241-1-8-8"
       inkscape:connector-curvature="0"
       sodipodi:nodetypes="cc" />
    <path
       sodipodi:type="arc"
       style="fill:none;stroke:#311b1b;stroke-width:1.20000005;stroke-miterlimit:4;stroke-opacity:1;stroke-dasharray:none"
       id="path5960-13"
       sodipodi:cx="59.5"
       sodipodi:cy="423.86218"
       sodipodi:rx="23.5"
       sodipodi:ry="24.5"
       d="m 83,423.86218 a 23.5,24.5 0 1 1 -47,0 23.5,24.5 0 1 1 47,0 z"
       transform="matrix(1.0050652,0,0,1.0050652,-30.801379,90.853053)" />
    <path
       sodipodi:type="arc"
       style="fill:none;stroke:#311b1b;stroke-width:1.20000005;stroke-miterlimit:4;stroke-opacity:1;stroke-dasharray:none"
       id="path5960-90"
       sodipodi:cx="59.5"
       sodipodi:cy="423.86218"
       sodipodi:rx="23.5"
       sodipodi:ry="24.5"
       d="m 83,423.86218 a 23.5,24.5 0 1 1 -47,0 23.5,24.5 0 1 1 47,0 z"
       transform="matrix(1.0050652,0,0,1.0050652,54.626881,90.853053)" />
    <path
       sodipodi:type="arc"
       style="fill:none;stroke:#311b1b;stroke-width:1.20000005;stroke-miterlimit:4;stroke-opacity:1;stroke-dasharray:none"
       id="path5960-81"
       sodipodi:cx="59.5"
       sodipodi:cy="423.86218"
       sodipodi:rx="23.5"
       sodipodi:ry="24.5"
       d="m 83,423.86218 a 23.5,24.5 0 1 1 -47,0 23.5,24.5 0 1 1 47,0 z"
       transform="matrix(1.0050652,0,0,1.0050652,220.23926,90.853053)" />
    <path
       sodipodi:type="arc"
       style="fill:none;stroke:#311b1b;stroke-width:1.20000005;stroke-miterlimit:4;stroke-opacity:1;stroke-dasharray:none"
       id="path5960-4"
       sodipodi:cx="59.5"
       sodipodi:cy="423.86218"
       sodipodi:rx="23.5"
       sodipodi:ry="24.5"
       d="m 83,423.86218 a 23.5,24.5 0 1 1 -47,0 23.5,24.5 0 1 1 47,0 z"
       transform="matrix(1.0050652,0,0,1.0050652,304.69862,90.853053)" />
    <path
       sodipodi:type="arc"
       style="fill:none;stroke:#311b1b;stroke-width:1.20000005;stroke-miterlimit:4;stroke-opacity:1;stroke-dasharray:none"
       id="path5960-56"
       sodipodi:cx="59.5"
       sodipodi:cy="423.86218"
       sodipodi:rx="23.5"
       sodipodi:ry="24.5"
       d="m 83,423.86218 a 23.5,24.5 0 1 1 -47,0 23.5,24.5 0 1 1 47,0 z"
       transform="matrix(1.0050652,0,0,1.0050652,385.85166,90.853053)" />
    <path
       sodipodi:type="arc"
       style="fill:none;stroke:#311b1b;stroke-width:1.20000005;stroke-miterlimit:4;stroke-opacity:1;stroke-dasharray:none"
       id="path5960-51"
       sodipodi:cx="59.5"
       sodipodi:cy="423.86218"
       sodipodi:rx="23.5"
       sodipodi:ry="24.5"
       d="m 83,423.86218 a 23.5,24.5 0 1 1 -47,0 23.5,24.5 0 1 1 47,0 z"
       transform="matrix(1.0050652,0,0,1.0050652,551.46405,90.853053)" />
    <path
       sodipodi:type="arc"
       style="fill:none;stroke:#311b1b;stroke-width:1.20000005;stroke-miterlimit:4;stroke-opacity:1;stroke-dasharray:none"
       id="path5960-98"
       sodipodi:cx="59.5"
       sodipodi:cy="423.86218"
       sodipodi:rx="23.5"
       sodipodi:ry="24.5"
       d="m 83,423.86218 a 23.5,24.5 0 1 1 -47,0 23.5,24.5 0 1 1 47,0 z"
       transform="matrix(1.0050652,0,0,1.0050652,634.27022,90.853053)" />
    <path
       style="fill:none;stroke:#000000;stroke-width:1;stroke-linecap:butt;stroke-linejoin:miter;stroke-miterlimit:4;stroke-opacity:1;stroke-dasharray:6, 1;stroke-dashoffset:0;marker-end:url(#Arrow1Lend-1-1)"
       d="m 30,448.36218 -1,44"
       id="path6780"
       inkscape:connector-curvature="0"
       sodipodi:nodetypes="cc" />
    <path
       style="fill:none;stroke:#000000;stroke-width:1;stroke-linecap:butt;stroke-linejoin:miter;stroke-miterlimit:4;stroke-opacity:1;stroke-dasharray:6, 1;stroke-dashoffset:0;marker-end:url(#Arrow1Lend-1-1)"
       d="m 114.6819,446.36218 -1,44"
       id="path6780-1"
       inkscape:connector-curvature="0"
       sodipodi:nodetypes="cc" />
    <path
       style="fill:none;stroke:#000000;stroke-width:1;stroke-linecap:butt;stroke-linejoin:miter;stroke-miterlimit:4;stroke-opacity:1;stroke-dasharray:6, 1;stroke-dashoffset:0;marker-end:url(#Arrow1Lend-1-1)"
       d="m 280.6819,445.36218 -1,44"
       id="path6780-5"
       inkscape:connector-curvature="0"
       sodipodi:nodetypes="cc" />
    <path
       style="fill:none;stroke:#000000;stroke-width:1;stroke-linecap:butt;stroke-linejoin:miter;stroke-miterlimit:4;stroke-opacity:1;stroke-dasharray:6, 1;stroke-dashoffset:0;marker-end:url(#Arrow1Lend-1-1)"
       d="m 363.6819,445.36218 -1,44"
       id="path6780-6"
       inkscape:connector-curvature="0"
       sodipodi:nodetypes="cc" />
    <path
       style="fill:none;stroke:#000000;stroke-width:1;stroke-linecap:butt;stroke-linejoin:miter;stroke-miterlimit:4;stroke-opacity:1;stroke-dasharray:6, 1;stroke-dashoffset:0;marker-end:url(#Arrow1Lend-1-1)"
       d="m 444.6819,447.36218 -1,44"
       id="path6780-11"
       inkscape:connector-curvature="0"
       sodipodi:nodetypes="cc" />
    <path
       style="fill:none;stroke:#000000;stroke-width:1;stroke-linecap:butt;stroke-linejoin:miter;stroke-miterlimit:4;stroke-opacity:1;stroke-dasharray:6, 1;stroke-dashoffset:0;marker-end:url(#Arrow1Lend-1-1)"
       d="m 610.6819,442.36218 -1,44"
       id="path6780-4"
       inkscape:connector-curvature="0"
       sodipodi:nodetypes="cc" />
    <path
       style="fill:none;stroke:#000000;stroke-width:1;stroke-linecap:butt;stroke-linejoin:miter;stroke-miterlimit:4;stroke-opacity:1;stroke-dasharray:6, 1;stroke-dashoffset:0;marker-end:url(#Arrow1Lend-1-1)"
       d="m 693.6819,443.36218 -1,44"
       id="path6780-7"
       inkscape:connector-curvature="0"
       sodipodi:nodetypes="cc" />
  </g>
</svg>
